/* XPM */
"16 16 36 1"
"  c None"
". c #C9CBD2"
"X c #6090FF"
"o c #BCC1CB"
"O c #A0B0D0"
"+ c #90B8FF"
"@ c #90B0FF"
"# c #70A0F0"
"$ c #7098F0"
"% c #BBC0C9"
"& c #5078D0"
"* c #4070C0"
"= c #4068C0"
"- c #3058B0"
"; c #BABFC7"
": c #2050A0"
"> c #2048A0"
", c #70A0FF"
"< c #5088F0"
"1 c #A0C0FF"
"2 c #7098E0"
"3 c #7090E0"
"4 c #6088D0"
"5 c #6080D0"
"6 c #5078C0"
"7 c #BEC3CC"
"8 c #C8CACF"
"9 c #3058A0"
"0 c #80B0FF"
"q c #3050A0"
"w c #80A8FF"
"e c #6090F0"
"r c #204890"
"t c #5088E0"
"y c #5080E0"
"u c #5078E0"
"                "
"                "
"                "
"                "
"        #O      "
"        26.     "
"    #2343$-.    "
"    2110w,y-8   "
"    3+wXetu*-   "
"    4@e<y&*9;   "
"    5r>:-=q%    "
"        :qo     "
"        r7      "
"                "
"                "
"                "
