/* XPM */
"16 16 42 1"
"  c None"
". c #80B070"
"X c #80A870"
"o c #70A860"
"O c #C6C6C2"
"+ c #70A060"
"@ c #709860"
"# c #C9CDBE"
"$ c #609050"
"% c #ACB0A8"
"& c #507840"
"* c #D0F0B0"
"= c #C0E8A0"
"- c #C0E0A0"
"; c #ABAFA6"
": c #AAADA5"
"> c #B0E090"
", c #A0D080"
"< c #90C070"
"1 c #CCD1C2"
"2 c #CACFC0"
"3 c #D2DBCE"
"4 c #90A890"
"5 c #809880"
"6 c #809080"
"7 c #607860"
"8 c #A9ACA4"
"9 c #404840"
"0 c #C0F0B0"
"q c #C0E8B0"
"w c #304030"
"e c #303830"
"r c #B0E0A0"
"t c #202820"
"y c #A0D890"
"u c #202020"
"i c #A0C090"
"p c #CBD0C1"
"a c #A0B890"
"s c #90C880"
"d c #90A080"
"f c #80B870"
"                "
"                "
"                "
"       a3       "
"       451      "
"       d-5p     "
"   ia4d5qs52    "
"   a*0q=r<.5#   "
"   40>y,<fo$7   "
"   dq.X+@o&u:   "
"   5tew9$&u;    "
"       6&u%     "
"       6u8      "
"       6O       "
"                "
"                "
