/* XPM */
"16 16 26 1"
"  c None"
". c #809870"
"X c #809070"
"o c #609850"
"O c #609050"
"+ c #ABACA7"
"@ c #607050"
"# c #D4DACB"
"$ c #AEB1A9"
"% c #A0C880"
"& c #80B060"
"* c #C8CFBE"
"= c #AEB2AB"
"- c #80A080"
"; c #AFB3AB"
": c #C7CFBE"
"> c #D0E8C0"
", c #B0D8A0"
"< c #202020"
"1 c #A0C890"
"2 c #C8D0BE"
"3 c #C6CEBC"
"4 c #90B080"
"5 c #90A880"
"6 c #80B870"
"7 c #C8C6C1"
"                "
"                "
"                "
"      #         "
"      42        "
"      4X:       "
"      4>.*      "
"      4,1X3     "
"      5%&o@     "
"      -6O<$     "
"      .O<;      "
"      X<=       "
"      X+        "
"      7         "
"                "
"                "
