/* XPM */
"16 16 23 1"
"  c None"
". c #4070D0"
"X c #CBD5E8"
"o c #BBC3D3"
"O c #304890"
"+ c #6088E0"
"@ c #5078D0"
"# c #D5D9E2"
"$ c #4070C0"
"% c #80B0F0"
"& c #B1BFDE"
"* c #DCDFE7"
"= c #7090E0"
"- c #E2E4E6"
"; c #6088D0"
": c #BAC2D2"
"> c #4068B0"
", c #3050A0"
"< c #6098F0"
"1 c #CBD3E2"
"2 c #204890"
"3 c #5080E0"
"4 c #C7D2EB"
"                "
"                "
"                "
"                "
"      X         "
"      =4        "
"      3+*       "
"      ;%3&      "
"      @<;.#     "
"      >$O1      "
"      ,2:       "
"      2o        "
"      -         "
"                "
"                "
"                "
