/* XPM */
"16 16 5 1"
"  c None"
"@ c #000000"
". c #CDC6BB"
"X c #959391"
"o c #FFFFFF"
"                "
"                "
"                "
"                "
"      @@@       "
"     @o..@      "
"    @oo..X@     "
"    @...XX@     "
"    @..XXX@     "
"     @XXX@      "
"      @@@       "
"                "
"                "
"                "
"                "
"                "
