/* XPM */
"16 16 49 1"
"  c None"
". c #4078D0"
"X c #B0D0FF"
"o c #B0C8FF"
"O c #90B0F0"
"+ c #80A0E0"
"@ c #7088D0"
"# c #E0F0FF"
"$ c #E0E8FF"
"% c #6080C0"
"& c #A0B8D0"
"* c #A0B0D0"
"= c #90B8FF"
"- c #90B0FF"
"; c #70A0F0"
": c #7098F0"
"> c #6090E0"
", c #6088E0"
"< c #6080E0"
"1 c #5078D0"
"2 c #5070D0"
"3 c #C0D8FF"
"4 c #C0D0FF"
"5 c #4070C0"
"6 c #4068C0"
"7 c #80A0D0"
"8 c #8098D0"
"9 c #8090D0"
"0 c #F0F8FF"
"q c #F0F0FF"
"w c #7090C0"
"e c #4080E0"
"r c #304860"
"t c #4078E0"
"y c #4070E0"
"u c #A0C8FF"
"i c #A0C0FF"
"p c #80A8F0"
"a c #80A0F0"
"s c #A0B0C0"
"d c #A0A8C0"
"f c #6088D0"
"g c #FFFFFF"
"h c #D0E8FF"
"j c #D0E0FF"
"k c #D0D8FF"
"l c #5078C0"
"z c #80B0FF"
"x c #5080E0"
"                "
"                "
" &&**sssssdddd  "
"&gggg00000qq##r "
"&g79w@f%l566.$r "
"*gwjk3Xoii=zt$r "
"*gwjq##ii=-;t$r "
"s0w34oui=p;:y$r "
"s0w4#$$hjjk>yhr "
"s0wXui-pa:><yjr "
"s0wo$hjjk341yjr "
"s0wiOp;:><12yjr "
"dq8+a;:>,xetxjr "
"dq##$$$$hjjjjjr "
" rrrrrrrrrrrrr  "
"                "
