/* XPM */
"16 16 43 1"
"  c None"
". c #D0937D"
"X c #CE917B"
"o c #BEAFAD"
"O c #7E4536"
"+ c #E06030"
"@ c #DCC5BD"
"# c #BB6C5E"
"$ c #C47053"
"% c #926967"
"& c #D04820"
"* c #C04010"
"= c #FFB8A0"
"- c #E07050"
"; c #D06040"
": c #F0A080"
"> c #C05030"
", c #F09880"
"< c #E09070"
"1 c #8C4D45"
"2 c #D6BFB5"
"3 c #A03010"
"4 c #D5866B"
"5 c #DCC2B7"
"6 c #D1947E"
"7 c #C0B0AF"
"8 c #B98170"
"9 c #C57154"
"0 c #F07850"
"q c #916866"
"w c #E07040"
"e c #E0C7BD"
"r c #784436"
"t c #C57053"
"y c #F09070"
"u c #F08870"
"i c #FFC8B0"
"p c #E2C8BE"
"a c #8C4C45"
"s c #F0A890"
"d c #BB8373"
"f c #7E4637"
"g c #B96B5D"
"                "
"                "
"                "
"                "
"     e.$tX5     "
"    p4<:u;g2    "
"    6<i=,->8    "
"    9:=syw&a    "
"    9u,y0+*O    "
"    6;-w+&3q    "
"    p#>&*3ro    "
"     @d1f%7     "
"                "
"                "
"                "
"                "
