/* XPM */
"16 16 47 1"
"  c #None"
". c #E8E1DD"
"X c #903010"
"o c #2B4276"
"O c #909DB8"
"+ c #CAAFA5"
"@ c #B06850"
"# c #506090"
"$ c #E2CFC6"
"% c #455E85"
"& c #405880"
"* c #405080"
"= c #D1D2D6"
"- c #C02810"
"; c #96A5BC"
": c #F03810"
"> c #B04820"
", c #B04020"
"< c #204080"
"1 c #B3BDCE"
"2 c #A03010"
"3 c #902000"
"4 c #F05030"
"5 c #B05840"
"6 c #8594AA"
"7 c #D03010"
"8 c #802010"
"9 c #801810"
"0 c #701000"
"q c #CAADA4"
"w c #700800"
"e c #E1D4CE"
"r c #C04020"
"t c #D2BBB2"
"y c #C03820"
"u c #D2BDB5"
"i c #A07070"
"p c #C8A6A1"
"a c #E0DFE0"
"s c #63789A"
"d c #8084A6"
"f c #3B5176"
"g c #B05030"
"h c #504870"
"j c #B03830"
"k c #E03010"
"l c #A04020"
"                "
"                "
"                "
"   s@.e5g$      "
"   &ig>r4lX38   "
"   1#442k4,wq   "
"    &j:y7-w+    "
"    ;h:y0wu     "
"     *9wp       "
"     dft        "
"     a<O        "
"      6%        "
"      =o        "
"                "
"                "
"                "
