/* XPM */
"16 16 43 1"
"  c None"
". c #103080"
"X c #B0C8FF"
"o c #90B8F0"
"O c #B0C0FF"
"+ c #90B0F0"
"@ c #90A8F0"
"# c #80A0E0"
"$ c #7090D0"
"% c #E0E8FF"
"& c #6080C0"
"* c #5068B0"
"= c #769CDF"
"- c #4060A0"
"; c #90B0FF"
": c #6088E0"
"> c #5078D0"
", c #C0D8FF"
"< c #C0D0FF"
"1 c #A0C0F0"
"2 c #A0B8F0"
"3 c #3060B0"
"4 c #3058B0"
"5 c #80A0D0"
"6 c #2050A0"
"7 c #2048A0"
"8 c #104090"
"9 c #103890"
"0 c #003080"
"q c #A0C0FF"
"w c #80B0F0"
"e c #80A8F0"
"r c #80A0F0"
"t c #7098E0"
"y c #7090E0"
"u c #779DE0"
"i c #D0E0FF"
"p c #D0D8FF"
"a c #5078C0"
"s c #4068B0"
"d c #4060B0"
"f c #3058A0"
"g c #3050A0"
"                "
"                "
"                "
"    ;;werrtt=   "
"    ;ii,<XX24   "
"    w%pXO2+#6   "
"    ei<q+er$7   "
"    rpX2@rta8   "
"    r<q+ry:*9   "
"    tXort:>s.   "
"    t15$&*-f0   "
"    ud3g78900   "
"                "
"                "
"                "
"                "
